<?xml version="1.0" encoding="utf-8"?><svg xmlns="http://www.w3.org/2000/svg" xmlns:xlink="http://www.w3.org/1999/xlink" width="288" height="504" viewBox="0 0 288 504" id="svg-item-sk-svg-item-sk-0.5696759713729669-6" style="fill: none"><title>Click and element and edit card</title><g style="clip-path: url(#clip0_603_1428)"><rect width="288" height="504" style="fill: white" /><path d="M288 504L288 0L0 0L0 504L288 504Z" style="fill: #261C29" /><g style="clip-path: url(#clip1_603_1428)"><path d="M273.453 56.7086V54.5082H273.029V56.7086H273.453Z" style="fill: #768A5E" /><path d="M273.029 41.8557C273.029 28.6529 262.418 29.203 259.447 36.3546C262.418 31.4035 271.331 30.8534 271.331 41.3056C271.331 48.4571 265.813 49.5574 265.813 47.3569C265.813 46.2567 266.662 46.2567 266.662 46.2567C266.662 47.907 270.907 47.907 270.907 41.3056C270.907 29.203 258.598 31.9536 258.598 39.6553C258.598 47.3569 266.662 45.7065 266.662 40.2054H267.087C267.087 46.2567 259.022 47.3569 259.022 39.6553C258.598 29.203 273.453 26.4525 273.029 41.8557C273.453 49.0072 267.511 53.9583 267.511 60.5597C267.511 67.7112 275.151 67.1611 275.151 61.6599C275.151 58.3592 271.756 58.3592 271.756 60.0096C271.756 61.1098 272.18 61.1098 272.18 61.1098C272.18 62.21 271.331 62.7602 270.907 62.7602C270.058 62.7602 269.633 62.21 269.633 61.1098C269.633 57.259 275.575 56.7089 275.575 61.6599C275.575 67.7112 267.087 68.2613 267.087 60.5597C267.087 56.1588 270.058 52.3079 271.756 47.907C268.784 52.8581 261.569 51.7578 261.569 46.8068H261.994C261.994 52.3079 273.029 52.3079 273.029 41.8557Z" style="fill: #FEE8BF" /><path d="M271.331 66.6108C270.058 66.6108 268.785 66.0607 268.36 64.9604C267.511 63.8602 267.087 62.2099 267.087 60.5595C267.087 57.2588 268.785 53.9581 270.058 51.2075C270.058 50.6574 270.482 50.6574 270.482 50.1073C269.209 51.2075 267.936 51.7576 266.238 51.7576C264.965 51.7576 263.691 51.2075 262.842 50.6574C261.994 50.1073 261.145 48.4569 261.145 47.3567C261.145 47.3567 261.145 46.8066 261.569 46.8066C262.418 46.2565 262.418 46.8066 262.418 46.8066C262.418 49.0071 264.54 50.1073 266.238 50.1073C267.936 50.1073 269.633 49.5572 270.482 47.9068C271.756 46.2565 272.604 44.056 272.604 41.8555C272.604 34.704 269.209 31.9535 266.238 31.9535C265.389 31.9535 264.116 31.9535 263.267 32.5036C264.116 32.5036 264.965 32.5036 265.389 32.5036C268.36 32.5036 271.756 34.704 271.756 41.3054C271.756 46.2565 269.209 49.0071 267.087 49.0071C266.662 49.0071 266.238 49.0071 266.238 48.4569C265.813 47.9068 265.813 47.9068 265.813 47.3567C265.813 46.2565 266.662 45.7064 266.662 45.7064H267.087V46.2565C267.087 46.2565 267.511 46.8066 267.936 46.8066C268.785 46.8066 270.907 45.7064 270.907 41.8555C270.907 36.3544 267.936 34.1539 265.389 34.1539C262.418 34.1539 259.447 36.3544 259.447 40.2052C259.447 43.5059 261.145 45.1562 262.842 45.1562C264.54 45.1562 266.662 43.5059 266.662 41.3054C266.662 41.3054 266.662 40.7553 267.087 40.7553C267.511 40.7553 267.511 41.3054 267.511 41.3054C267.511 44.6061 264.965 46.8066 262.842 46.8066C261.569 46.8066 260.72 46.2565 259.871 45.1562C259.023 42.9558 258.174 41.3054 258.174 39.6551C258.174 34.1539 261.994 30.3031 266.238 30.3031C269.633 30.3031 273.878 33.0537 273.878 41.8555C273.878 42.9558 273.878 43.5059 273.453 44.056V43.5059L273.029 44.056C272.604 46.8066 271.331 49.0071 270.058 51.2075C268.785 53.9581 267.087 56.7087 267.087 60.0094C267.087 63.3101 268.785 64.9604 270.482 64.9604C272.18 64.9604 273.878 63.8602 273.878 61.1096C273.878 59.4593 273.029 58.9092 272.18 58.9092C271.756 58.9092 271.331 58.9092 271.331 59.4593C271.331 60.0094 271.331 60.0094 271.756 60.0094H272.18V60.5595C272.18 61.6597 271.331 62.76 270.482 62.76C269.633 62.76 268.785 62.2099 268.785 60.5595C268.785 58.359 270.482 57.2588 272.18 57.2588C273.878 57.2588 275.576 58.359 275.576 61.1096C276 64.9604 273.878 66.6108 271.331 66.6108ZM272.18 58.359C271.331 58.359 270.058 59.4593 270.058 61.1096C270.058 61.6597 270.482 62.2099 270.907 62.2099C271.331 62.2099 271.756 61.6597 271.756 61.1096C271.331 61.1096 271.331 60.5595 271.331 59.4593C271.756 58.9092 271.756 58.9092 272.18 58.359ZM266.662 46.8066C266.662 47.3567 266.662 47.3567 266.662 47.9068C267.087 48.4569 267.936 47.9068 268.785 47.3567C268.36 47.3567 268.36 47.3567 267.936 47.3567C267.511 47.3567 267.087 47.3567 266.662 46.8066Z" style="fill: #FEE8BF" /><path d="M269.209 51.7578C267.087 53.9583 266.662 56.7089 266.662 56.7089C264.965 58.3592 263.267 54.5084 264.965 52.858C264.54 52.858 266.662 53.4082 269.209 51.7578Z" style="fill: #FEE8BF" /><path d="M265.389 57.8091C264.54 57.8091 263.691 56.7089 263.267 55.6086C262.842 54.5084 263.267 53.4082 264.116 52.858C264.116 52.858 266.238 53.4082 268.36 51.7578H268.785C269.209 51.7578 269.209 52.3079 269.209 52.3079V52.858C267.087 53.9583 266.662 56.7089 266.662 56.7089C266.238 57.259 265.813 57.8091 265.389 57.8091ZM264.54 53.4082C264.116 53.9583 264.116 54.5084 264.116 55.0585C264.116 55.6086 264.965 56.7089 265.389 56.7089H265.813C265.813 56.1587 266.238 54.5084 267.087 53.4082C266.238 53.9583 265.389 53.9583 264.54 53.9583C264.965 53.4082 264.54 53.4082 264.54 53.4082Z" style="fill: #FEE8BF" /><path d="M263.267 29.753C264.965 27.0024 264.54 23.7017 264.54 23.7017C265.814 21.5013 268.36 24.802 267.087 26.4523C267.511 27.0024 264.965 27.5526 263.267 29.753Z" style="fill: #FEE8BF" /><path d="M249.261 34.1538C245.865 34.704 245.016 25.352 248.412 21.5012C245.441 23.7016 242.47 27.0023 239.074 27.0023C233.132 27.0023 233.556 16 238.225 16C242.045 16 241.621 23.7016 238.65 23.7016C237.801 23.7016 237.376 22.6014 237.376 22.0513C237.376 20.951 237.801 20.4009 238.65 20.4009C238.65 20.4009 238.65 20.951 239.498 20.951C240.772 20.951 240.772 16.5501 238.225 16.5501C233.981 16.5501 233.556 26.4522 239.074 26.4522C244.167 26.4522 247.987 18.7506 253.505 18.7506C265.389 18.7506 263.267 38.0047 255.203 38.0047C248.836 38.0047 250.109 27.5524 254.778 27.5524V28.1026C250.534 28.1026 249.261 38.0047 255.203 38.0047C261.145 38.0047 263.267 22.0513 253.929 22.0513C249.261 22.0513 249.261 27.5524 250.109 27.5524C250.109 27.5524 250.109 28.6527 249.261 28.6527C247.563 28.6527 248.412 21.5012 253.929 21.5012C261.994 21.5012 261.569 33.0536 257.749 36.9044C262.843 33.0536 263.267 19.3007 253.505 19.3007C245.016 19.8508 245.016 34.1538 249.261 34.1538Z" style="fill: #FEE8BF" /><path d="M254.778 38.5548C253.081 38.5548 252.232 38.0047 251.383 36.9045C250.534 35.8043 250.109 34.704 250.109 33.0537C250.109 30.3031 251.807 27.0024 254.354 27.0024C254.354 27.0024 254.778 27.0024 254.778 27.5525C254.778 28.1026 254.354 28.1026 254.354 28.1026C252.232 28.1026 251.383 30.3031 251.383 33.0537C251.383 34.1539 251.807 35.2541 252.232 35.8043C253.081 36.9045 253.929 36.9045 255.203 36.9045C256.476 36.9045 257.749 35.8043 258.598 34.704C259.447 33.0537 259.872 31.4033 259.872 29.2029C259.872 25.9022 258.174 22.0514 253.929 22.0514C250.958 22.0514 250.109 24.8019 250.109 25.9022C249.685 27.0024 250.109 27.0024 250.109 27.0024H250.534V27.5525C250.534 28.1026 250.109 28.6527 249.261 28.6527C248.412 28.6527 247.987 28.1026 247.987 26.4523C247.987 25.352 248.412 23.7017 249.261 22.6015C250.109 21.5012 251.383 20.401 253.505 20.401C258.174 20.401 259.447 23.7017 259.872 25.9022C260.296 27.5525 260.296 29.753 259.872 31.4033C260.296 29.753 260.72 27.5525 260.296 25.3521C259.447 21.5012 256.9 19.3008 252.656 19.3008C250.534 19.3008 248.836 20.401 247.987 22.0514C247.138 23.7017 246.29 25.352 246.29 27.5525C246.29 30.3031 247.138 32.5036 248.836 32.5036C248.836 32.5036 249.261 32.5036 249.261 33.0537C249.261 33.6038 248.836 33.6038 248.836 33.6038C247.563 33.6038 246.29 32.5036 245.865 30.3031C245.016 28.1026 245.441 24.8019 246.714 22.0514C246.29 22.0514 246.29 22.6015 245.865 22.6015C243.743 24.2518 241.196 26.4523 238.65 26.4523C236.952 26.4523 236.103 25.9022 235.254 24.8019C234.405 23.7017 233.981 22.0514 233.981 20.9511C233.981 18.2005 235.254 15.45 237.801 15.45C238.65 15.45 239.499 16.0001 240.347 16.5502C241.196 18.2005 241.196 19.3008 241.196 20.401C241.196 22.6015 240.347 24.8019 238.65 24.8019C237.801 24.8019 236.952 23.7017 236.952 22.6015C236.952 21.5012 237.801 20.401 238.65 20.401H239.074V20.9511C239.074 20.9511 239.074 21.5012 239.499 21.5012C239.923 21.5012 239.923 20.9511 239.923 20.401C239.923 19.8509 239.923 19.3008 239.499 18.7507C239.074 18.2005 238.65 18.2005 238.225 18.2005C236.527 18.2005 235.254 20.401 235.254 22.6015C235.254 23.7017 235.679 24.8019 236.103 25.9022C236.952 27.0024 237.801 27.5525 239.074 27.5525C241.621 27.5525 243.318 25.9022 245.865 23.7017C247.563 22.0514 249.261 20.9511 251.383 19.8509L251.807 19.3008H251.383C251.807 19.3008 252.656 18.7507 253.081 18.7507C256.052 18.7507 258.174 19.8509 259.872 22.0514C261.145 23.7017 261.994 26.4523 261.994 28.6527C261.994 33.6038 259.447 38.5548 254.778 38.5548ZM249.261 25.3521C248.836 25.9022 248.836 26.4523 248.836 27.0024C248.836 27.5525 248.836 28.1026 249.261 28.1026H249.685C249.261 27.5525 249.261 27.0024 249.261 26.4523C248.836 25.9022 248.836 25.3521 249.261 25.3521ZM238.225 20.9511C237.801 20.9511 237.376 21.5012 237.376 22.0514C237.376 22.6015 237.801 23.1516 238.225 23.1516C239.499 23.1516 239.923 22.0514 240.347 20.401C240.347 21.5012 239.923 21.5012 239.499 21.5012C239.074 21.5012 238.65 21.5012 238.225 20.9511Z" style="fill: #FEE8BF" /><path d="M244.592 30.8533C243.743 33.0538 240.347 30.8533 241.621 28.6528C241.621 28.6528 243.743 28.1027 245.44 24.802C245.44 24.802 245.865 24.802 245.44 24.802C244.167 28.1027 244.592 30.8533 244.592 30.8533Z" style="fill: #FEE8BF" /><path d="M243.318 32.5036C242.47 32.5036 241.621 31.9535 241.196 30.8532C240.772 30.3031 240.772 29.2029 241.196 28.6528C241.196 28.6528 243.318 28.1026 244.592 25.3521H245.441C245.865 25.3521 245.865 25.3521 245.865 25.9022V26.4523C244.592 29.2029 245.016 31.9535 245.016 31.9535C244.592 31.9535 244.167 32.5036 243.318 32.5036ZM242.045 28.6528C242.045 29.2029 242.045 29.753 242.045 29.753C242.47 30.3031 242.894 30.8532 243.318 30.8532C243.743 30.8532 243.743 30.8532 244.167 30.3031C244.167 29.753 244.167 28.1026 244.592 26.4523C243.318 28.1026 242.47 28.6528 242.045 28.6528Z" style="fill: #FEE8BF" /><path d="M234.829 19.8508H171.588V21.5012H234.829V19.8508Z" style="fill: #FEE8BF" /><path d="M234.829 23.1514H171.588V23.7015H234.829V23.1514Z" style="fill: #FEE8BF" /><path d="M234.829 481.949H171.588V483.599H234.829V481.949Z" style="fill: #FEE8BF" /><path d="M234.829 479.748H171.588V480.298H234.829V479.748Z" style="fill: #FEE8BF" /><path d="M116.411 482.499H53.1703V484.149H116.411V482.499Z" style="fill: #FEE8BF" /><path d="M116.411 480.298H53.1703V480.849H116.411V480.298Z" style="fill: #FEE8BF" /><path d="M116.836 20.9512H53.595V22.6015H116.836V20.9512Z" style="fill: #FEE8BF" /><path d="M116.836 24.2517H53.595V24.8018H116.836V24.2517Z" style="fill: #FEE8BF" /><path d="M26.0064 46.8069C26.4309 51.2078 19.2154 52.3081 16.2444 47.9071C17.9421 51.7579 20.4887 55.6088 20.4887 60.5598C20.4887 68.2614 12 67.7113 12 61.66C12 56.709 17.9421 57.2591 17.9421 61.1099C17.9421 62.2102 17.0932 62.7603 16.6688 62.7603C16.2444 62.7603 15.3955 61.66 15.3955 61.1099C15.3955 61.1099 15.8199 61.1099 15.8199 60.0097C15.8199 58.3593 12.4244 58.3593 12.4244 61.66C12.4244 67.1612 20.0643 67.7113 20.0643 60.5598C20.4887 53.9584 14.5466 49.0074 14.5466 41.8558C14.5466 26.4526 29.4019 29.2032 29.4019 39.6554C29.4019 47.9071 21.3376 46.2568 21.3376 40.2055H21.7621C21.7621 45.7067 29.4019 47.357 29.4019 39.6554C29.4019 31.9538 16.6688 29.2032 16.6688 41.3057C16.6688 47.357 20.9132 47.357 20.9132 46.2568C20.9132 46.2568 21.7621 46.2568 21.7621 47.357C21.7621 49.5575 16.2444 47.9071 16.2444 41.3057C16.2444 30.8535 25.1576 31.4036 28.1286 36.3547C25.1576 29.7533 14.5466 29.2032 14.5466 41.8558C14.9711 52.3081 26.0064 52.3081 26.0064 46.8069Z" style="fill: #FEE8BF" /><path d="M16.2444 66.6107C14.9711 66.6107 14.1222 66.0606 13.2733 65.5105C12.4244 64.4103 12 62.7599 12 61.6597C12 58.9091 13.6977 57.8089 15.3955 57.8089C17.0932 57.8089 18.791 58.9091 18.791 61.1096C18.791 62.2098 17.9421 63.31 17.0932 63.31C16.2444 63.31 15.3955 62.2098 15.3955 61.1096V60.5594H15.8199C15.8199 60.5594 16.2444 60.5594 16.2444 60.0093C16.2444 59.4592 15.8199 59.4592 15.3955 59.4592C14.9711 59.4592 13.6977 60.0093 13.6977 61.6597C13.6977 63.8601 15.3955 65.5105 17.0932 65.5105C18.791 65.5105 20.4887 64.4103 20.4887 60.5594C20.4887 57.2587 19.2154 55.0583 17.5177 51.7576C15.8199 49.5571 14.9711 47.3566 14.1222 44.6061V44.0559V44.6061C14.1222 44.0559 13.6977 42.9557 13.6977 42.4056C13.6977 34.1538 17.9421 30.8531 21.3376 30.8531C25.1576 30.8531 29.4019 34.1538 29.4019 40.2051C29.4019 44.6061 27.2797 46.2564 25.1576 46.2564C23.8842 46.2564 23.0354 45.7063 22.1865 44.6061C21.3376 43.5058 20.4887 41.8555 20.4887 40.2051C20.4887 40.2051 20.4887 39.655 20.9132 39.655C21.3376 39.655 21.3376 40.2051 21.3376 40.2051C21.3376 42.9557 23.0354 44.0559 25.1576 44.0559C26.8553 44.0559 28.5531 42.9557 28.5531 39.1049C28.5531 35.2541 25.582 33.0536 22.6109 33.0536C20.0643 33.0536 17.0932 35.2541 17.0932 40.7552C17.0932 44.6061 19.2154 45.7063 20.0643 45.7063C20.4887 46.2564 20.4887 46.2564 20.4887 46.2564V45.7063H20.9132C21.3376 45.7063 21.7621 46.2564 21.7621 47.3566C21.7621 48.4569 21.3376 49.007 20.0643 49.007C19.2154 49.007 17.9421 48.4569 17.0932 47.3566C16.2444 46.2564 15.3955 44.6061 15.3955 41.8555C15.8199 34.704 19.6399 32.5035 22.6109 32.5035C23.0354 32.5035 23.8842 32.5035 24.3087 32.5035C23.4598 31.9534 22.6109 31.9534 21.7621 31.9534C18.791 31.9534 15.3955 34.704 15.3955 41.8555C15.3955 47.3566 18.791 50.1072 21.7621 50.1072C23.0354 50.1072 23.8842 49.5571 24.7331 49.007C24.7331 49.007 25.582 47.9068 25.582 46.8065C25.582 46.8065 25.582 46.2564 26.0064 46.2564C26.4309 46.2564 26.4309 46.8065 26.4309 46.8065C26.4309 49.5571 24.3087 51.2075 21.3376 51.2075C20.0643 51.2075 18.3666 50.6573 17.0932 49.5571C17.0932 50.1072 17.5177 50.1072 17.5177 50.6573C18.791 53.4079 20.4887 56.7086 20.4887 60.0093C20.9132 64.4103 18.791 66.6107 16.2444 66.6107ZM15.8199 61.1096C15.8199 61.6597 16.2444 62.2098 16.6688 62.2098C17.0932 62.2098 17.5177 61.6597 17.5177 61.1096C17.5177 59.4592 16.6688 58.9091 15.3955 58.359C16.2444 58.9091 16.2444 58.9091 16.2444 59.4592C16.2444 60.5594 16.2444 61.1096 15.8199 61.1096ZM19.2154 47.3566C19.6399 47.3566 20.0643 47.9068 20.4887 47.9068C20.9132 47.9068 21.3376 47.9068 21.3376 47.3566V46.8065C20.9132 47.3566 20.4887 47.3566 20.0643 47.3566C19.6399 47.3566 19.6399 47.3566 19.2154 47.3566Z" style="fill: #FEE8BF" /><path d="M23.4597 52.8584C25.1575 53.9586 23.4597 58.3596 21.762 56.7092C21.762 56.7092 21.3375 53.9586 18.7909 51.7582C18.7909 51.7582 18.7909 51.2081 18.7909 51.7582C21.3375 53.4085 23.4597 52.8584 23.4597 52.8584Z" style="fill: #FEE8BF" /><path d="M22.6108 57.8089C22.1863 57.8089 21.7619 57.8089 21.7619 57.2588C21.7619 57.2588 21.3375 54.5082 19.2153 52.8579V51.7576C19.2153 51.2075 19.2153 51.2075 19.6397 51.2075H20.0641C21.3375 52.3078 23.0352 52.3078 23.8841 52.3078C24.3085 52.3078 24.3085 52.3078 24.3085 52.3078C24.3085 53.408 24.733 53.9581 24.3085 55.6085C24.3085 56.7087 23.4596 57.8089 22.6108 57.8089ZM21.7619 56.7087H22.1863C22.6108 56.7087 23.4596 56.1586 23.4596 55.0583C23.4596 54.5082 23.4596 53.9581 23.0352 53.408H22.6108C22.1863 53.408 21.3375 53.408 20.0641 52.8579C21.3375 54.5082 21.7619 56.1586 21.7619 56.7087Z" style="fill: #FEE8BF" /><path d="M20.4887 27.0024C19.2154 24.802 21.762 22.0514 23.0353 24.2519C23.0353 24.2519 22.6108 27.0024 24.733 29.753C23.0353 27.5525 20.4887 27.0024 20.4887 27.0024Z" style="fill: #FEE8BF" /><path d="M34.9199 19.8507C24.7334 19.8507 25.1578 33.6037 30.6755 37.4545C26.4311 33.0535 26.0067 21.5011 34.071 21.5011C39.5887 21.5011 40.4376 28.6526 38.7398 28.6526C37.8909 28.6526 37.8909 27.5524 37.8909 27.5524C39.1642 27.5524 39.1642 22.0512 34.071 22.0512C24.7334 22.0512 27.28 38.0046 33.2221 38.0046C39.1642 38.0046 37.8909 28.1025 33.6466 28.1025V27.5524C38.3154 27.5524 39.1642 38.0046 33.2221 38.0046C25.1578 38.5547 23.0356 19.3006 34.9199 19.8507C40.0131 19.3006 43.8331 27.0023 48.9263 27.0023C54.444 27.0023 54.0196 17.1002 49.7752 17.1002C47.2286 17.1002 47.2286 21.5011 48.5019 21.5011C49.3507 21.5011 49.3507 20.951 49.3507 20.951C50.1996 20.4009 50.6241 21.5011 50.6241 22.0512C50.6241 23.1514 50.1996 23.7016 49.3507 23.7016C46.3797 24.2517 45.9552 16.55 49.7752 16.55C54.444 16.55 54.8684 27.5524 48.9263 27.5524C45.5308 27.0023 42.5597 23.7016 39.1642 21.5011C42.9842 25.3519 42.1353 34.7039 38.3154 34.7039V34.1538C42.9842 34.1538 42.9842 19.8507 34.9199 19.8507Z" style="fill: #FEE8BF" /><path d="M33.222 38.5548C28.9777 38.5548 26.0066 33.6037 26.0066 28.1026C26.0066 25.352 26.8555 23.1515 28.1288 21.5012C29.8265 19.3007 31.9487 18.2005 34.9198 18.2005C35.7686 18.2005 36.1931 18.2005 36.6175 18.7506H36.1931L36.6175 19.3007C38.7397 19.8508 40.4375 21.5012 42.1352 23.1515C44.2574 24.8019 46.3796 27.0023 48.9262 27.0023C50.1995 27.0023 51.0484 26.4522 51.8973 25.352C52.3217 24.2517 52.7461 23.1515 52.7461 21.5012C52.7461 19.3007 51.8973 17.1002 49.7751 17.1002C49.3506 17.1002 48.5018 17.1002 48.5018 17.6503C48.0773 18.2005 48.0773 18.7506 48.0773 19.3007C48.0773 19.8508 48.0773 20.4009 48.5018 20.4009C48.9262 20.4009 48.9262 20.4009 48.9262 19.8508V19.3007H49.3506C50.1995 19.3007 51.0484 20.4009 51.0484 21.5012C51.0484 22.6014 50.624 23.7016 49.3506 23.7016C47.6529 23.7016 46.804 21.5012 46.804 19.3007C46.804 18.2005 47.2285 17.1002 47.6529 16.5501C48.0773 16.5501 48.9262 16 49.7751 16C52.3217 16 53.595 18.7506 53.595 21.5012C53.595 23.1515 53.1706 24.8019 52.3217 25.352C51.8973 27.0023 50.624 27.5524 48.9262 27.5524C46.3796 27.5524 43.833 25.9021 41.7108 23.7016C41.7108 23.7016 41.2863 23.7016 40.8619 23.1515C42.1352 25.9021 42.5596 29.2028 41.7108 31.4033C41.2863 33.6037 40.013 34.704 38.7397 34.704C38.7397 34.704 38.3153 34.704 38.3153 34.1538C38.3153 33.6037 38.7397 33.6037 38.7397 33.6037C40.4375 33.6037 41.2863 30.8531 41.2863 28.6527C41.2863 26.4522 40.8619 24.2517 39.5886 23.1515C38.3153 20.951 36.6175 19.8508 34.9198 19.8508C31.0998 19.8508 28.1288 22.0513 27.2799 25.9021C26.8555 28.1026 26.8555 30.303 27.7043 31.9534C27.2799 30.303 27.2799 28.1026 27.7043 26.4522C28.1288 24.2517 29.8265 20.951 34.0709 20.951C36.1931 20.951 37.8908 22.0513 38.3153 23.1515C39.5886 24.2517 40.013 25.9021 40.013 27.0023C40.013 28.1026 39.5886 29.2028 38.7397 29.2028C37.8908 29.2028 37.8908 28.1026 37.4664 27.5524V27.0023H37.8908C37.8908 27.0023 38.3153 26.4522 38.3153 25.9021C38.3153 24.8019 37.8908 24.2517 37.4664 23.7016C36.6175 23.1515 35.7686 22.6014 34.0709 22.6014C31.9487 22.6014 30.6754 23.1515 29.4021 24.8019C28.9777 25.9021 28.1288 27.5524 28.1288 29.7529C28.1288 33.6037 29.8265 37.4545 32.7976 37.4545C34.0709 37.4545 34.9198 36.9044 35.7686 36.3543C36.1931 35.8042 36.6175 34.704 36.6175 33.6037C36.6175 31.4033 35.3442 28.6527 33.6465 28.6527C33.6465 28.6527 33.222 28.6527 33.222 28.1026C33.222 27.5524 33.222 27.0023 33.6465 27.0023C36.1931 27.0023 37.8908 30.303 37.8908 33.0536C37.8908 34.704 37.4664 35.8042 36.6175 36.9044C35.7687 38.0047 34.4953 38.5548 33.222 38.5548ZM38.3153 28.1026C38.7397 28.1026 38.7397 28.1026 38.3153 28.1026C39.1641 28.1026 39.1641 27.5524 39.1641 27.5524C39.1641 27.0023 39.1641 26.4522 38.7397 25.9021C38.7397 26.4522 38.7397 26.4522 38.7397 27.0023C39.1641 27.0023 38.7397 27.5524 38.3153 28.1026ZM47.6529 20.951C47.6529 22.0513 48.5018 23.7016 49.7751 23.7016C50.1995 23.7016 50.1995 22.6014 50.1995 22.0513C50.1995 21.5012 50.1995 20.951 49.7751 20.951C49.3506 21.5012 48.9262 21.5012 48.5018 21.5012C48.0773 21.5012 47.6529 21.5012 47.6529 20.951Z" style="fill: #FEE8BF" /><path d="M42.5598 24.8018C42.1353 24.8018 42.5598 24.8018 42.5598 24.8018C44.2575 27.5523 46.3797 28.1025 46.3797 28.1025C47.653 30.3029 44.682 32.5034 43.4086 30.3029C43.4086 30.853 43.8331 28.1025 42.5598 24.8018Z" style="fill: #FEE8BF" /><path d="M44.682 32.5034C43.8331 32.5034 43.4087 31.9533 42.9843 31.4032C42.9843 31.4032 43.4087 28.6526 42.1354 25.902V25.3519C42.1354 24.8018 42.5598 24.8018 42.5598 24.8018H42.9843C44.2576 27.5523 46.3797 28.1025 46.3797 28.1025C46.8042 28.6526 46.8042 29.7528 46.3797 30.3029C46.3797 31.4032 45.5309 32.5034 44.682 32.5034ZM43.8331 30.853C43.8331 31.4032 44.2576 31.4032 44.682 31.4032C45.1064 31.4032 45.9553 30.853 45.9553 30.3029C45.9553 29.7528 45.9553 29.2027 45.9553 29.2027C45.5309 28.6526 44.682 28.1025 43.4087 27.0022C43.8331 28.6526 43.8331 30.3029 43.8331 30.853Z" style="fill: #FEE8BF" /><path d="M144.425 24.2519C145.128 24.2519 145.698 23.513 145.698 22.6015C145.698 21.6901 145.128 20.9512 144.425 20.9512C143.721 20.9512 143.151 21.6901 143.151 22.6015C143.151 23.513 143.721 24.2519 144.425 24.2519Z" style="fill: #FEE8BF" /><path d="M166.92 20.9512C167.344 20.9512 168.193 21.5014 168.193 22.0515V22.6016C168.193 23.1517 167.769 23.7018 166.92 23.7018C166.495 23.7018 166.071 23.1517 165.646 22.6016C159.28 22.6016 151.64 24.2519 149.093 24.2519C146.122 24.2519 146.122 20.4011 149.093 20.4011C151.64 20.4011 159.28 22.6016 165.646 22.6016C166.071 21.5014 166.495 20.9512 166.92 20.9512Z" style="fill: #FEE8BF" /><path d="M122.778 22.6016C129.145 22.6016 136.785 20.4011 139.331 20.4011C142.302 20.4011 142.302 24.2519 139.331 24.2519C136.785 24.8021 129.569 22.6016 122.778 22.6016C122.778 23.7018 122.354 24.2519 121.505 24.2519C121.08 24.2519 120.656 23.7018 120.232 23.1517V22.6016C120.232 22.0515 120.656 21.5014 121.505 21.5014C122.354 20.9512 122.778 21.5014 122.778 22.6016Z" style="fill: #FEE8BF" /><path d="M15.8199 65.5105H14.5465V217.893H15.8199V65.5105Z" style="fill: #FEE8BF" /><path d="M17.0932 65.5105H16.6687V217.893H17.0932V65.5105Z" style="fill: #FEE8BF" /><path d="M14.9711 286.657H13.6978V438.49H14.9711V286.657Z" style="fill: #FEE8BF" /><path d="M16.2444 286.657H15.82V438.49H16.2444V286.657Z" style="fill: #FEE8BF" /><path d="M15.3955 254.751C16.0987 254.751 16.6688 254.012 16.6688 253.1C16.6688 252.189 16.0987 251.45 15.3955 251.45C14.6922 251.45 14.1222 252.189 14.1222 253.1C14.1222 254.012 14.6922 254.751 15.3955 254.751Z" style="fill: #FEE8BF" /><path d="M14.5467 223.394C14.5467 222.844 14.9711 221.744 15.3956 221.744H15.82C16.2444 221.744 16.6689 222.294 16.6689 223.394C16.6689 224.494 16.2444 225.044 15.3956 225.044C15.3956 233.296 16.6689 243.198 16.6689 246.499C16.6689 250.35 13.6978 250.35 13.6978 246.499C13.6978 243.198 15.3956 233.296 15.3956 225.044C14.9711 225.044 14.5467 224.494 14.5467 223.394Z" style="fill: #FEE8BF" /><path d="M15.3956 280.606C15.3956 272.355 13.6978 262.452 13.6978 259.152C13.6978 255.301 16.6689 255.301 16.6689 259.152C17.0933 262.452 15.3956 272.355 15.3956 280.606C16.2444 280.606 16.6689 281.156 16.6689 282.257C16.6689 282.807 16.2444 283.357 15.82 283.907H15.3956C14.9711 283.907 14.5467 283.357 14.5467 282.257C14.5467 281.156 14.9711 280.606 15.3956 280.606Z" style="fill: #FEE8BF" /><path d="M274.302 66.0607H273.029V218.443H274.302V66.0607Z" style="fill: #FEE8BF" /><path d="M271.756 66.0607H271.331V218.443H271.756V66.0607Z" style="fill: #FEE8BF" /><path d="M274.727 287.758H273.453V440.14H274.727V287.758Z" style="fill: #FEE8BF" /><path d="M272.605 287.208H272.18V437.389H272.605V287.208Z" style="fill: #FEE8BF" /><path d="M273.029 255.301C273.732 255.301 274.302 254.562 274.302 253.65C274.302 252.739 273.732 252 273.029 252C272.326 252 271.755 252.739 271.755 253.65C271.755 254.562 272.326 255.301 273.029 255.301Z" style="fill: #FEE8BF" /><path d="M273.029 225.594C273.029 233.846 274.726 243.748 274.726 247.049C274.726 250.9 271.755 250.9 271.755 247.049C271.331 243.748 272.604 233.846 273.029 225.594C272.18 225.594 271.755 225.044 271.755 223.944C271.755 223.394 272.18 222.844 272.604 222.294H273.029C273.453 222.294 273.878 222.844 273.878 223.944C273.878 225.044 273.453 225.594 273.029 225.594Z" style="fill: #FEE8BF" /><path d="M273.878 282.807C273.878 283.357 273.453 284.457 273.029 284.457H272.604C272.18 284.457 271.756 283.907 271.756 282.807C271.756 282.256 272.18 281.706 272.604 281.156C272.604 272.905 271.331 263.002 271.331 259.702C271.331 255.851 274.302 255.851 274.302 259.702C274.302 263.002 272.604 272.905 272.604 281.156C273.453 281.706 273.878 282.256 273.878 282.807Z" style="fill: #FEE8BF" /><path d="M261.994 457.194C261.994 457.194 261.569 457.194 261.994 457.194C261.569 452.793 268.784 451.692 271.756 456.093C270.058 451.692 267.087 448.392 267.087 443.441C267.087 435.739 275.575 436.289 275.575 442.34C275.575 447.292 269.633 446.741 269.633 442.891C269.633 441.79 270.482 441.24 270.907 441.24C271.756 441.24 272.18 441.79 272.18 442.891C272.18 442.891 271.756 442.891 271.756 443.991C271.756 445.641 275.151 445.641 275.151 442.34C275.151 436.839 267.511 436.289 267.511 443.441C267.511 450.042 273.453 454.993 273.453 462.145C273.453 477.548 258.598 474.797 258.598 464.345C258.598 456.093 266.662 457.744 266.662 463.795H266.238C266.238 458.294 258.598 456.644 258.598 464.345C258.598 472.047 270.907 474.797 270.907 462.695C270.907 456.643 266.662 456.644 266.662 457.744C266.662 457.744 265.813 457.744 265.813 456.643C265.813 454.443 271.331 455.543 271.331 462.695C271.331 473.147 262.418 472.597 259.447 467.646C262.418 474.247 273.029 474.797 273.029 462.145C273.029 451.692 261.994 451.692 261.994 457.194Z" style="fill: #FEE8BF" /><path d="M266.238 473.697C264.116 473.697 262.418 472.597 260.72 471.497C259.447 469.296 258.174 467.096 258.174 464.345C258.174 459.944 260.296 458.294 262.418 458.294C264.54 458.294 267.087 460.494 267.087 463.795C267.087 463.795 267.087 464.345 266.662 464.345C266.238 464.345 266.238 463.795 266.238 463.795C266.238 461.044 264.54 459.944 262.418 459.944C260.72 459.944 259.023 461.044 259.023 464.895C259.023 468.746 261.994 470.946 264.965 470.946C267.511 470.946 270.482 468.746 270.482 463.245C270.482 459.394 268.36 458.294 267.511 458.294C267.087 458.294 266.662 458.294 266.662 458.844V459.394H266.238C265.814 459.394 265.389 458.844 265.389 457.744C265.389 456.643 265.813 456.093 267.087 456.093C269.209 456.093 271.756 458.844 271.756 463.795C271.756 470.396 268.36 472.597 265.389 472.597C264.54 472.597 264.116 472.597 263.267 472.047C264.116 472.597 264.965 472.597 266.238 472.597C267.936 472.597 269.633 472.047 270.907 470.396C272.18 468.746 273.029 465.995 273.029 462.695C273.029 457.194 269.633 454.443 266.662 454.443C264.54 454.443 262.842 455.543 262.842 457.744C262.842 457.744 262.842 458.294 262.418 458.294C261.994 458.294 261.994 457.744 261.994 457.744C261.994 454.993 264.116 453.343 267.087 453.343C268.36 453.343 270.058 453.893 271.331 454.993C271.331 454.443 270.907 454.443 270.907 453.893C269.633 451.142 267.936 447.842 267.936 444.541C267.936 440.14 270.482 438.49 272.605 438.49C274.727 438.49 276.849 440.14 276.849 443.441C276.849 446.191 275.151 447.291 273.453 447.291C272.604 447.291 271.756 446.741 271.331 446.191C270.482 445.641 270.058 444.541 270.058 443.441C270.058 442.34 270.907 441.24 271.756 441.24C272.605 441.24 273.453 442.34 273.453 443.441V443.991H273.029C273.029 443.991 272.605 443.991 272.605 444.541C272.605 445.091 273.029 445.091 273.453 445.091C273.878 445.091 275.151 444.541 275.151 442.891C275.151 440.69 273.453 439.04 271.756 439.04C270.058 439.04 268.36 440.14 268.36 443.991C268.36 447.291 269.633 449.492 271.331 452.793C272.604 454.993 273.453 457.194 274.302 459.944L274.727 460.494V459.944C274.727 460.494 275.151 461.594 275.151 462.145C273.878 470.946 269.633 473.697 266.238 473.697ZM267.511 456.643C267.087 456.643 266.662 456.643 266.662 457.194V457.744C267.087 457.194 267.511 457.194 267.936 457.194C267.936 457.194 268.36 457.194 268.785 457.194C268.36 456.643 267.936 456.643 267.511 456.643ZM271.331 442.34C270.907 442.34 270.482 442.891 270.482 443.441C270.482 444.541 270.907 445.091 271.331 445.091C271.756 445.641 272.18 445.641 272.605 445.641C272.18 445.091 272.18 445.091 272.18 444.541C272.18 443.991 272.605 443.441 272.605 442.891C272.18 442.34 271.756 442.34 271.331 442.34Z" style="fill: #FEE8BF" /><path d="M264.54 451.143C262.843 450.042 264.54 445.642 266.238 447.292C266.238 447.292 266.662 450.042 269.209 452.243C269.209 452.243 269.209 452.793 269.209 452.243C266.662 450.593 264.54 451.143 264.54 451.143Z" style="fill: #FEE8BF" /><path d="M269.209 452.793C266.663 451.142 264.54 451.692 264.54 451.692C263.691 451.142 263.691 450.042 263.691 448.942C264.116 447.842 264.54 446.741 265.814 446.741C266.238 446.741 266.663 446.741 266.663 447.291C266.663 447.291 267.087 450.042 269.209 451.692V452.242C269.634 452.793 269.209 452.793 269.209 452.793ZM264.965 450.592C265.389 450.592 266.238 450.592 267.511 451.142C266.663 450.042 266.238 448.392 266.238 447.842H265.814C265.389 447.842 264.54 448.392 264.54 449.492C264.54 450.042 264.54 450.592 264.965 451.142C264.54 450.592 264.965 450.592 264.965 450.592Z" style="fill: #FEE8BF" /><path d="M267.511 477.548C268.785 479.198 266.238 482.499 264.965 480.298C264.965 480.298 265.389 477.548 263.267 474.797C264.965 476.998 267.511 477.548 267.511 477.548Z" style="fill: #FEE8BF" /><path d="M253.081 484.699C263.267 484.699 262.843 470.947 257.325 467.096C261.145 470.947 261.569 482.499 253.505 482.499C247.987 482.499 247.138 475.347 248.836 475.347C249.685 475.347 249.685 476.448 249.685 476.448C248.412 476.448 248.412 481.949 253.505 481.949C262.843 481.949 260.72 465.995 254.778 465.995C248.836 465.995 250.109 475.898 254.354 475.898V476.448C249.685 476.448 248.836 465.995 254.778 465.995C262.843 465.995 264.965 485.25 253.081 484.699C247.563 485.25 243.743 477.548 238.65 477.548C233.132 477.548 233.556 487.45 237.801 487.45C240.347 487.45 240.347 483.049 239.074 483.049C238.225 483.049 238.225 483.599 238.225 483.599C237.376 483.599 236.952 482.499 236.952 481.949C236.952 480.849 237.376 480.299 238.225 480.299C241.196 480.299 241.621 488 237.801 488C233.132 488 232.708 476.998 238.65 476.998C242.045 476.998 245.016 480.849 248.412 483.049C244.592 479.198 245.441 469.846 249.261 469.846V470.396C245.016 470.396 245.016 484.699 253.081 484.699Z" style="fill: #FEE8BF" /><path d="M238.225 488C235.679 488 234.405 485.249 234.405 482.499C234.405 480.849 234.83 479.198 235.679 478.648C236.527 477.548 237.801 476.998 239.074 476.998C241.621 476.998 244.167 479.198 246.289 480.849C246.714 480.849 246.714 481.399 247.138 481.399C245.865 478.098 245.441 474.797 246.289 472.597C246.714 470.396 247.987 469.296 249.261 469.296C249.261 469.296 249.685 469.296 249.685 469.846C249.685 470.396 249.261 470.396 249.261 470.396C247.563 470.396 246.714 473.147 246.714 475.347C246.714 477.548 247.138 479.748 248.412 480.849C249.685 482.499 251.383 483.599 253.08 483.599C256.9 483.599 259.871 481.399 260.72 477.548C261.145 475.347 261.145 473.697 260.296 471.497C260.72 473.147 260.72 475.347 260.296 476.998C259.871 479.198 258.174 482.499 253.929 482.499C251.807 482.499 250.109 481.399 249.685 480.298C248.836 479.198 248.412 477.548 248.412 476.448C248.412 475.347 248.836 474.247 249.685 474.247C250.534 474.247 250.958 475.347 250.958 475.347V475.897H250.534C250.534 475.897 250.109 476.448 250.109 476.998C250.109 478.098 250.534 478.648 250.958 479.198C251.807 480.298 252.656 480.298 253.929 480.298C256.052 480.298 257.325 479.748 258.598 478.098C259.447 476.998 259.871 475.347 259.871 473.147C259.871 469.296 258.174 465.445 255.203 465.445C253.929 465.445 253.08 465.995 252.232 466.546C251.807 467.096 251.383 468.196 251.383 469.296C251.383 471.497 252.656 474.247 254.354 474.247C254.354 474.247 254.778 474.247 254.778 474.797C254.778 475.347 254.354 475.347 254.354 475.347C251.807 475.347 250.109 472.047 250.109 469.296C250.109 467.646 250.534 466.545 251.383 465.445C252.232 464.345 253.505 463.795 254.778 463.795C259.023 463.795 261.994 468.746 261.994 474.247C261.994 476.998 261.145 479.198 259.871 480.849C258.174 483.049 256.052 484.149 253.08 484.149C252.232 484.149 251.807 484.149 251.383 483.599H251.807L251.383 483.049C249.261 482.499 247.563 480.849 245.865 479.198C243.743 477.548 241.621 475.347 239.074 475.347C237.801 475.347 236.952 475.897 236.103 476.998C235.679 477.548 235.254 478.648 235.254 480.298C235.254 482.499 236.103 484.699 238.225 484.699C238.65 484.699 239.498 484.699 239.498 484.149C239.923 483.599 239.923 483.049 239.923 482.499C239.923 481.949 239.923 481.399 239.498 481.399C239.074 481.399 239.074 481.399 239.074 481.949V482.499H238.65C237.801 482.499 236.952 481.399 236.952 480.298C236.952 479.198 237.376 478.098 238.65 478.098C240.347 478.098 241.196 480.298 241.196 482.499C241.196 483.599 240.772 484.699 240.347 485.249C239.923 488 239.074 488 238.225 488ZM239.498 482.499C239.923 482.499 240.347 482.499 240.347 483.049C240.347 481.949 239.498 480.298 238.225 480.298C237.801 480.298 237.376 480.849 237.376 481.399C237.376 481.949 237.801 482.499 238.225 482.499C238.65 483.049 239.074 482.499 239.498 482.499ZM249.261 475.897C248.836 475.897 248.836 476.448 248.836 476.998C248.836 477.548 248.836 478.098 249.261 478.648C249.261 478.098 249.261 478.098 249.261 477.548C248.836 476.998 249.261 476.448 249.261 475.897C249.261 475.897 249.261 476.448 249.261 475.897Z" style="fill: #FEE8BF" /><path d="M245.441 479.198C243.743 476.447 241.621 475.897 241.621 475.897C240.347 473.697 243.318 471.496 244.592 473.697C244.592 473.147 244.167 476.447 245.441 479.198Z" style="fill: #FEE8BF" /><path d="M245.441 479.748C243.743 476.448 241.621 475.897 241.621 475.897C241.196 475.347 241.196 474.247 241.621 473.697C242.045 472.597 242.894 472.047 243.743 472.047C244.592 472.047 245.016 472.597 245.441 473.147C245.441 473.147 245.016 475.897 246.289 478.648V479.198C245.865 479.748 245.865 479.748 245.441 479.748ZM242.045 475.347C242.47 475.347 243.743 475.897 244.592 476.998C244.167 475.347 244.167 473.697 244.167 473.147C244.167 472.597 243.743 472.597 243.318 472.597C242.894 472.597 242.045 473.147 242.045 473.697C241.621 474.247 241.621 474.797 242.045 475.347Z" style="fill: #FEE8BF" /><path d="M14.971 462.145C14.971 475.348 25.5819 474.798 28.553 467.647C25.5819 472.598 16.6687 473.148 16.6687 462.695C16.6687 455.544 22.1864 454.444 22.1864 456.644C22.1864 457.744 21.3375 457.744 21.3375 457.744C21.3375 456.094 17.0932 456.094 17.0932 462.695C17.0932 474.798 29.4018 472.047 29.4018 464.346C29.4018 456.644 21.762 458.295 21.762 463.796H21.3375C21.3375 457.744 29.4018 456.644 29.4018 464.346C29.4018 474.798 14.5465 477.549 14.971 462.145C14.5465 455.544 20.4887 450.593 20.4887 443.992C20.4887 436.84 12.8488 437.39 12.8488 442.891C12.8488 446.192 16.2443 446.192 16.2443 444.542C16.2443 443.441 15.8198 443.441 15.8198 443.441C15.8198 442.341 16.6687 441.791 17.0932 441.791C17.942 441.791 18.3665 442.341 18.3665 443.441C18.3665 447.292 12.4243 447.842 12.4243 442.891C12.4243 436.84 20.9131 436.29 20.9131 443.992C20.9131 448.392 17.942 452.243 16.2443 456.644C19.2153 451.693 26.4308 452.793 26.4308 457.744H26.0063C26.0063 451.693 14.971 451.693 14.971 462.145Z" style="fill: #FEE8BF" /><path d="M21.7621 473.697C19.6399 473.697 17.9421 472.597 16.6688 470.946C14.9711 468.746 14.1222 465.995 14.1222 462.145C14.1222 461.044 14.1222 460.494 14.5466 459.944V460.494L14.9711 459.944C15.3955 457.194 16.6688 454.993 17.9421 452.793C19.2154 450.042 20.9132 447.291 20.9132 443.991C20.9132 440.69 19.2154 439.04 17.5177 439.04C15.8199 439.04 14.1222 440.14 14.1222 442.891C14.1222 444.541 14.9711 445.091 15.8199 445.091C16.2444 445.091 16.6688 445.091 16.6688 444.541C16.6688 443.991 16.2444 443.991 16.2444 443.991H15.8199V443.441C15.8199 442.34 16.6688 441.24 17.5177 441.24C18.3666 441.24 19.2154 441.79 19.2154 443.441C19.2154 445.641 17.5177 446.741 15.8199 446.741C14.9711 446.741 14.1222 446.191 13.6977 445.641C12.4244 445.091 12 443.991 12 442.891C12 439.59 14.1222 437.939 16.2444 437.939C18.3666 437.939 20.9132 439.59 20.9132 443.991C20.9132 447.291 19.2154 450.592 17.9421 453.343C17.9421 453.893 17.5177 453.893 17.5177 454.443C18.791 453.343 20.0643 452.793 21.7621 452.793C24.7331 452.793 26.8553 454.443 26.8553 457.194C26.8553 457.194 26.8553 457.744 26.4309 457.744C26.0064 457.744 26.0064 457.194 26.0064 457.194C26.0064 454.993 23.8842 453.893 22.1865 453.893C19.2154 453.893 15.8199 456.643 15.8199 462.145C15.8199 469.296 19.2154 472.047 22.1865 472.047C23.0354 472.047 24.3087 472.047 25.1576 471.497C24.3087 471.497 23.8842 472.047 23.0354 472.047C21.3376 472.047 19.6399 471.497 18.3666 469.846C17.0932 468.196 16.2444 465.995 16.2444 463.245C16.2444 458.294 18.791 455.543 20.9132 455.543C21.7621 455.543 22.6109 456.093 22.6109 457.194C22.6109 458.294 21.7621 458.844 21.7621 458.844H21.3376V458.294C21.3376 458.294 20.9132 457.744 20.4887 457.744C19.6399 457.744 17.5177 458.844 17.5177 462.695C17.5177 468.196 20.4887 470.396 23.0354 470.396C26.0064 470.396 28.9775 468.196 28.9775 464.345C28.9775 461.044 27.2797 459.394 25.582 459.394C23.8842 459.394 21.7621 461.044 21.7621 463.245C21.7621 463.245 21.7621 463.795 21.3376 463.795C20.9132 463.795 20.9132 463.245 20.9132 463.245C20.9132 459.944 23.4598 457.744 25.582 457.744C27.7042 457.744 29.8264 459.394 29.8264 463.795C29.4019 470.396 25.582 473.697 21.7621 473.697ZM20.0643 456.643C20.4887 456.643 20.9132 456.643 21.3376 457.194C21.3376 457.194 21.3376 457.194 21.3376 456.643C21.3376 456.093 20.9132 456.093 20.4887 456.093C20.0643 456.093 19.6399 456.093 19.2154 456.643C19.6399 456.643 19.6399 456.643 20.0643 456.643ZM15.8199 442.891C16.2444 443.441 16.2444 443.991 16.2444 444.541C16.2444 445.091 16.2444 445.641 15.8199 445.641C16.6688 445.641 17.9421 444.541 17.9421 442.891C17.9421 442.34 17.5177 441.79 17.0932 441.79C16.2444 442.34 15.8199 442.34 15.8199 442.891Z" style="fill: #FEE8BF" /><path d="M18.7909 452.243C18.7909 452.793 18.7909 452.243 18.7909 452.243C20.9131 450.042 21.3375 447.292 21.3375 447.292C23.0353 445.641 24.733 449.492 23.0353 451.143C23.4597 451.143 21.3375 450.592 18.7909 452.243Z" style="fill: #FEE8BF" /><path d="M18.791 452.793C18.791 452.793 18.3665 452.793 18.791 452.793C18.3665 452.243 18.3665 452.243 18.3665 452.243V451.692C20.4887 450.042 20.9132 447.292 20.9132 447.292C21.3376 446.741 21.762 446.741 21.762 446.741C22.6109 446.741 23.4598 447.842 23.8842 448.942C24.3087 450.042 23.8842 451.142 23.0354 451.692C23.4598 451.692 21.3376 451.142 18.791 452.793ZM21.762 447.842C21.762 448.392 21.3376 450.042 20.4887 451.142C21.762 450.592 23.0354 450.592 23.4598 450.592C23.8842 450.042 23.8842 449.492 23.8842 448.942C23.8842 448.392 23.0354 447.292 22.6109 447.292C22.1865 447.842 22.1865 447.842 21.762 447.842Z" style="fill: #FEE8BF" /><path d="M24.733 474.247C23.0353 476.998 23.0353 480.299 23.0353 480.299C21.762 482.499 19.2154 479.198 20.4887 477.548C20.4887 477.548 23.0353 476.998 24.733 474.247Z" style="fill: #FEE8BF" /><path d="M38.7399 470.396C38.7399 470.396 38.7399 469.846 38.7399 470.396C42.1354 469.846 42.9842 479.198 39.5887 483.049C42.9842 480.849 45.5309 476.998 49.3508 476.998C55.2929 476.998 54.8685 488 50.1997 488C46.3797 488 46.8042 480.299 49.7752 480.299C50.6241 480.299 51.0486 481.399 51.0486 481.949C50.6241 483.049 50.1997 483.599 49.3508 483.599C49.3508 483.599 49.3508 483.049 48.5019 483.049C47.2286 483.049 47.2286 487.45 49.7752 487.45C54.0196 487.45 54.4441 477.548 48.9264 477.548C43.8331 477.548 40.0132 485.25 34.4955 485.25C22.6113 485.25 24.7334 465.995 32.7977 465.995C39.1643 465.995 37.891 476.448 33.2222 476.448V475.898C37.4666 475.898 38.7399 465.995 32.7977 465.995C26.8556 465.995 24.7334 481.949 34.0711 481.949C38.7399 481.949 38.7399 476.448 37.891 476.448C37.891 476.448 37.891 475.347 38.7399 475.347C40.4376 475.347 39.5887 482.499 34.0711 482.499C26.0067 482.499 26.4312 470.947 30.2511 467.096C25.1579 470.947 24.7334 484.699 34.4955 484.699C42.9842 484.699 42.9842 470.396 38.7399 470.396Z" style="fill: #FEE8BF" /><path d="M49.7751 488C48.9262 488 48.0773 487.45 47.2285 486.9C46.804 486.35 46.3796 485.249 46.3796 484.149C46.3796 481.949 47.2285 479.748 48.9262 479.748C49.7751 479.748 50.624 480.849 50.624 481.949C50.624 483.049 49.7751 484.149 48.9262 484.149H49.3506V483.599C49.3506 483.599 49.3506 483.049 48.9262 483.049C48.5018 483.049 48.5018 483.599 48.5018 484.149C48.5018 484.699 48.5018 485.249 48.9262 485.8C49.3506 486.35 49.7751 486.35 50.1995 486.35C51.8973 486.35 53.1706 484.149 53.1706 481.949C53.1706 480.849 52.7461 479.748 52.3217 478.648C51.0484 478.648 50.1995 478.098 48.9262 478.098C46.3796 478.098 44.6818 479.748 42.1352 481.949C40.4375 483.599 38.7397 484.699 36.6175 485.8L36.1931 486.35H36.6175C36.1931 486.35 35.3442 486.9 34.9198 486.9C31.9487 486.9 29.8265 485.8 28.1288 483.599C26.8555 481.949 26.0066 479.198 26.0066 476.998C26.0066 472.047 28.5532 466.546 33.222 466.546C34.9198 466.546 35.7687 467.096 36.6175 468.196C37.4664 469.296 37.8908 470.396 37.8908 472.047C37.8908 474.797 36.1931 478.098 33.6465 478.098C33.6465 478.098 33.222 478.098 33.222 477.548C33.222 476.998 33.6465 476.998 33.6465 476.998C35.7686 476.998 36.6175 474.797 36.6175 472.047C36.6175 470.946 36.1931 469.846 35.7686 469.296C35.3442 467.096 34.0709 466.546 33.222 466.546C31.9487 466.546 30.6754 467.646 29.8265 468.746C28.9777 470.396 28.5532 472.047 28.5532 474.247C28.5532 477.548 30.251 481.399 34.4953 481.399C35.7687 481.399 37.042 480.849 37.4664 480.298C37.8908 479.748 38.3153 478.648 38.3153 478.098C38.3153 477.548 38.3153 476.998 37.8908 476.998H37.4664V476.448C37.4664 475.897 37.8908 475.347 38.7397 475.347C39.5886 475.347 40.013 475.898 40.013 477.548C40.013 478.648 39.5886 480.298 38.7397 481.399C37.8908 482.499 36.6175 483.599 34.4953 483.599C29.8265 483.599 28.5532 480.298 28.1288 478.098C27.7043 476.448 27.7043 474.247 28.1288 472.597C27.7043 474.247 27.2799 476.448 27.7043 478.648C28.5532 482.499 31.0998 484.699 35.3442 484.699C37.4664 484.699 39.1641 483.599 40.013 481.949C40.8619 480.298 41.7108 478.648 41.7108 476.448C41.7108 473.697 40.8619 471.497 39.1641 471.497C39.1641 471.497 38.7397 471.497 38.7397 470.946C38.7397 470.396 39.1641 470.396 39.1641 470.396C40.4375 470.396 41.7108 471.497 42.1352 473.697C42.9841 475.897 42.5596 479.198 41.2863 481.949C41.7108 481.949 41.7108 481.399 42.1352 481.399C44.2574 479.748 46.804 477.548 49.3506 477.548C51.0484 477.548 51.8973 478.098 52.7461 479.198C53.595 480.298 54.0195 481.949 54.0195 483.049C53.595 485.249 52.3217 488 49.7751 488ZM49.3506 480.849C48.0773 480.849 47.6529 481.949 47.2285 483.599C47.6529 483.049 47.6529 483.049 48.0773 483.049C48.5018 483.049 48.9262 483.599 49.3506 483.599C50.1995 483.049 50.1995 482.499 50.1995 481.949C50.1995 481.399 50.1995 480.849 49.3506 480.849ZM38.3153 476.448C38.7397 476.998 38.7397 477.548 38.7397 478.098C38.7397 478.648 38.7397 478.648 38.7397 479.198C39.1641 478.648 39.1641 478.098 39.1641 477.548C39.1641 476.998 39.1641 475.897 38.3153 476.448C38.7397 476.448 38.7397 475.897 38.3153 476.448Z" style="fill: #FEE8BF" /><path d="M43.4086 473.147C44.2575 470.947 47.653 473.147 46.3797 475.348C46.3797 475.348 44.2575 475.898 42.5598 479.198C42.5598 479.198 42.1353 479.198 42.5598 479.198C43.8331 476.448 43.4086 473.147 43.4086 473.147Z" style="fill: #FEE8BF" /><path d="M42.9843 479.748C42.5598 479.748 42.1354 479.748 42.1354 479.198V478.648C43.4087 475.897 42.9843 473.147 42.9843 473.147C43.4087 472.597 43.8331 472.047 44.682 472.047C45.5309 472.047 46.3797 472.597 46.8042 473.697C47.2286 474.247 47.2286 475.347 46.8042 475.897C46.3797 476.448 44.2576 476.998 42.9843 479.748ZM43.8331 473.697C43.8331 474.247 43.8331 475.897 43.4087 477.548C44.2576 476.448 45.5309 475.897 45.9553 475.897C45.9553 475.347 45.9553 474.797 45.9553 474.797C45.5309 474.247 45.1064 473.697 44.682 473.697C44.2576 473.147 43.8331 473.147 43.8331 473.697Z" style="fill: #FEE8BF" /><path d="M144.425 483.049C145.128 483.049 145.698 482.31 145.698 481.399C145.698 480.487 145.128 479.748 144.425 479.748C143.721 479.748 143.151 480.487 143.151 481.399C143.151 482.31 143.721 483.049 144.425 483.049Z" style="fill: #FEE8BF" /><path d="M166.071 481.95C159.704 481.95 152.064 484.15 149.518 484.15C146.547 484.15 146.547 480.3 149.518 480.3C152.064 479.749 159.28 481.4 166.071 481.95C166.071 480.85 166.495 480.3 167.344 480.3C167.769 480.3 168.193 480.85 168.617 481.4C168.617 481.95 168.193 482.5 167.344 482.5C166.495 483.05 166.071 482.5 166.071 481.95Z" style="fill: #FEE8BF" /><path d="M121.929 483.049C121.505 483.049 120.656 482.499 120.656 481.949C120.656 481.399 121.08 480.849 121.929 480.849C122.354 480.849 122.778 481.399 123.203 481.949C129.569 481.949 137.209 480.298 139.756 480.298C142.727 480.298 142.727 484.149 139.756 484.149C137.209 484.149 129.569 481.949 123.203 481.949C122.778 482.499 122.354 483.049 121.929 483.049Z" style="fill: #FEE8BF" /></g></g><defs><clipPath id="clip0_603_1428"><rect width="288" height="504" style="fill: white" /></clipPath><clipPath id="clip1_603_1428"><rect width="264" height="472" transform="translate(12 16)" style="fill: white" /></clipPath></defs><g id="add-custom" /><rect x="54.578125" y="87" width="175" height="236" style="fill: rgb(120,164,3)" /><text x="111.578125" y="131" style="font-size: 12; fill: #fff">What's New</text><text x="112.578125" y="203" style="font-size: 12; fill: #fff">What's New</text><text x="76.578125" y="152" style="font-size: 12; fill: #fff">What's New</text><text x="104.578125" y="269" style="font-size: 12; fill: #fff">What's New</text></svg>